<svg id="Icons" xmlns="http://www.w3.org/2000/svg" viewBox="0 0 550 550"><defs><style>.cls-1{fill:#232323}</style></defs><g id="Retailers"><path class="cls-1" d="M446,237.63c-25.65,0-38.27-19-43-28.56-4.49,9.59-16.74,28.56-43.2,28.56-26.24,0-38.52-18.72-43.09-28.36-4.57,9.64-16.84,28.36-43.11,28.36-26.49,0-38.74-19-43.22-28.62-4.76,9.55-17.49,28.62-43,28.62-25.89,0-38.56-19.53-43.16-29-4.78,9.41-17.76,29-43,29a45.9,45.9,0,0,1-37.71-19.8A30.31,30.31,0,0,1,61,188l33.1-71.42a21.51,21.51,0,0,1,19.44-12.42H433.74a21.51,21.51,0,0,1,19.44,12.42L486.25,188h0a30.27,30.27,0,0,1-2.51,29.85A45.85,45.85,0,0,1,446,237.63ZM403,192.83h.1a12.35,12.35,0,0,1,11.45,7.65c2.89,7,11.73,23.15,31.54,23.15a31.89,31.89,0,0,0,26.19-13.77,16.25,16.25,0,0,0,1.32-16l-33.08-71.42a7.43,7.43,0,0,0-6.73-4.31H113.58a7.43,7.43,0,0,0-6.73,4.31L73.74,193.86a16.23,16.23,0,0,0,1.32,16,31.84,31.84,0,0,0,26.19,13.77c19.17,0,28.45-16.37,31.54-23.41a12.4,12.4,0,0,1,11.35-7.39h.33a12.38,12.38,0,0,1,11.44,7.6c2.92,7,11.83,23.2,31.53,23.2S216,207.38,219,200.4a12.38,12.38,0,0,1,11.42-7.57h.14a12.32,12.32,0,0,1,11.57,7.94c3.31,8.54,11.8,22.86,31.53,22.86s28.23-14.32,31.54-22.87a12.4,12.4,0,0,1,23.13,0c3.31,8.55,11.81,22.88,31.53,22.88s28.24-14.32,31.54-22.86A12.32,12.32,0,0,1,403,192.83Z"/><path class="cls-1" d="M106.39,364.65h29.92V335.07a4.66,4.66,0,0,1,4.66-4.66h18.61a4.66,4.66,0,0,1,4.66,4.66v29.58H189V354.43a4.66,4.66,0,0,1,4.66-4.66h21.06a4.66,4.66,0,0,1,4.66,4.66v10.22h28.75V340.51a4.66,4.66,0,0,1,4.66-4.66h21a4.66,4.66,0,0,1,4.66,4.66v24.14h29.39V307.56H106.39Z"/><path class="cls-1" d="M307.92,298.62V236.88c-9.72,7.37-44.66,25.15-77.39-8.28-9.09,13.67-50.58,37.71-86.2,0a57.15,57.15,0,0,1-37.94,19.62v50.4h29.92v-17.1a4.66,4.66,0,0,1,4.66-4.66h18.61a4.66,4.66,0,0,1,4.66,4.66v17.1H189V269.06a4.66,4.66,0,0,1,4.66-4.66h21.06a4.66,4.66,0,0,1,4.66,4.66v29.56h28.75V288.41a4.65,4.65,0,0,1,4.66-4.66h21a4.65,4.65,0,0,1,4.66,4.66v10.21Z"/><path class="cls-1" d="M478.78,416H442.51V248.37a57.15,57.15,0,0,1-39.57-19.76c-11,14.34-50.79,36.72-86.08.13V411.56a4.47,4.47,0,0,1-8.93,0v-38H106.39V416H71.22A6.23,6.23,0,0,0,65,422.24v10.39a6.23,6.23,0,0,0,6.22,6.22l407.56,0a6.23,6.23,0,0,0,6.22-6.23V422.26A6.22,6.22,0,0,0,478.78,416Zm-64.56-86-63.1,11.9a2.83,2.83,0,0,1-3.3-2.26l-6.18-33a2.81,2.81,0,0,1,2.26-3.29l16.24-3L369,275.73a3.07,3.07,0,0,1,5.12-1.07l18.5,19.61L407,291.51a2.84,2.84,0,0,1,3.31,2.25l6.17,33A2.82,2.82,0,0,1,414.22,330Z"/><polygon class="cls-1" points="370.33 298.44 382.18 296.22 374.18 287.74 370.33 298.44"/></g></svg>